<svg width="16" height="16" viewBox="0 0 16 16" fill="none" xmlns="http://www.w3.org/2000/svg">
<circle cx="8" cy="8" r="8" fill="#FEE500"/>
<path d="M8.02354 3.86108C5.53458 3.86108 3.52734 5.46685 3.52734 7.41628C3.52734 8.68163 4.36235 9.78962 5.61486 10.4223L5.19094 12.0056C5.18294 12.0294 5.18171 12.0548 5.18739 12.0792C5.19306 12.1036 5.20541 12.1259 5.22305 12.1437C5.24878 12.1664 5.28188 12.1789 5.31619 12.179C5.34463 12.1767 5.37162 12.1655 5.39327 12.1469L7.21744 10.9169C7.48671 10.9541 7.75814 10.9734 8.02996 10.9747C10.5157 10.9747 12.5262 9.36891 12.5262 7.41628C12.5262 5.46364 10.5093 3.86108 8.02354 3.86108Z" fill="#392020"/>
<path d="M5.10062 6.85419H4.60925C4.54834 6.85596 4.48819 6.84036 4.43582 6.80922C4.41257 6.79466 4.39258 6.77543 4.3771 6.75277C4.36163 6.73011 4.351 6.7045 4.3459 6.67754C4.34434 6.66045 4.34434 6.64327 4.3459 6.62618C4.34437 6.5942 4.35058 6.5623 4.364 6.53323C4.37741 6.50416 4.39765 6.47876 4.42297 6.45917C4.47896 6.41862 4.54654 6.3972 4.61567 6.39813H6.0962C6.15759 6.39598 6.21815 6.41281 6.26963 6.44631C6.29343 6.46024 6.31384 6.47929 6.32939 6.50206C6.34494 6.52483 6.35524 6.55076 6.35955 6.578C6.36112 6.59402 6.36112 6.61016 6.35955 6.62618C6.36107 6.65863 6.35487 6.69096 6.34147 6.72055C6.32808 6.75013 6.30786 6.7761 6.28247 6.79637C6.22785 6.83687 6.16092 6.8573 6.09299 6.85419H5.61768V8.54348C5.61961 8.57947 5.61404 8.61545 5.60132 8.64917C5.58861 8.6829 5.56902 8.71363 5.54381 8.73938C5.51964 8.76401 5.49057 8.78331 5.45849 8.79603C5.42641 8.80875 5.39202 8.81461 5.35754 8.81324C5.29723 8.81496 5.23819 8.79569 5.19054 8.75867C5.14517 8.72251 5.11439 8.67117 5.10383 8.61413C5.10065 8.59068 5.10065 8.56692 5.10383 8.54348L5.10062 6.85419Z" fill="#FEE500"/>
<path d="M6.50157 6.52338C6.51569 6.47053 6.54887 6.42477 6.5947 6.39491C6.64354 6.36723 6.6992 6.35388 6.75528 6.35638H6.87732C6.93683 6.35424 6.99576 6.3687 7.04753 6.39813C7.10239 6.43502 7.14137 6.49119 7.15673 6.55549L7.79904 8.37004C7.8157 8.41738 7.82963 8.46565 7.84079 8.51458C7.84189 8.53491 7.84189 8.55526 7.84079 8.57558C7.84188 8.60688 7.83612 8.63804 7.82391 8.66689C7.81171 8.69573 7.79336 8.72157 7.77014 8.74259C7.74764 8.76565 7.72062 8.78383 7.69079 8.79599C7.66095 8.80814 7.62892 8.81401 7.59671 8.81324C7.54718 8.81816 7.49743 8.80628 7.45548 8.77948C7.41353 8.75268 7.38183 8.71253 7.36548 8.66552L7.23059 8.2705H6.38595L6.25107 8.66552C6.23511 8.71346 6.20302 8.75438 6.16027 8.78132C6.11752 8.80826 6.06676 8.81954 6.01662 8.81324C5.96231 8.81466 5.90912 8.79767 5.86568 8.76505C5.82335 8.73139 5.79479 8.68345 5.78539 8.63019C5.78368 8.61203 5.78368 8.59374 5.78539 8.57558C5.77987 8.5437 5.77987 8.51114 5.78539 8.47926C5.78539 8.44393 5.80787 8.40536 5.82071 8.37004L6.50157 6.52338ZM6.82272 6.94412L6.51762 7.90759H7.12461L6.82272 6.94412Z" fill="#FEE500"/>
<path d="M7.91434 6.62627C7.91108 6.5542 7.93648 6.48377 7.98499 6.43037C8.00966 6.40549 8.03927 6.38605 8.0719 6.37333C8.10454 6.3606 8.13949 6.35485 8.17448 6.35647C8.23464 6.35577 8.29335 6.37497 8.34148 6.41108C8.38609 6.44875 8.41571 6.50115 8.42498 6.5588C8.42814 6.58117 8.42814 6.6039 8.42498 6.62627V8.31556H9.30816C9.36938 8.31476 9.42955 8.33144 9.48159 8.3637C9.50497 8.37812 9.52506 8.39731 9.54055 8.42C9.55604 8.44268 9.56659 8.46836 9.57151 8.49539C9.57151 8.49539 9.57151 8.52751 9.57151 8.54357C9.57304 8.57555 9.56683 8.60741 9.55341 8.63648C9.53999 8.66555 9.51976 8.69099 9.49443 8.71058C9.43844 8.75112 9.37086 8.77251 9.30174 8.77158H8.21623C8.14709 8.77603 8.07837 8.75803 8.02032 8.72022C7.9684 8.68139 7.9338 8.62373 7.92398 8.55964C7.92162 8.52435 7.92162 8.48892 7.92398 8.45363L7.91434 6.62627Z" fill="#FEE500"/>
<path d="M9.62907 6.62628C9.62715 6.55442 9.65238 6.48448 9.69973 6.43038C9.74786 6.38665 9.8096 6.36082 9.87454 6.35731C9.93948 6.3538 10.0036 6.3728 10.0562 6.4111C10.1018 6.44844 10.1325 6.50081 10.1429 6.55882C10.1445 6.58127 10.1445 6.60383 10.1429 6.62628V7.4131L10.9554 6.47531C10.9868 6.44332 11.02 6.41332 11.055 6.38542C11.088 6.36577 11.1258 6.35573 11.1642 6.35648C11.2203 6.35618 11.2752 6.37299 11.3216 6.40467C11.3434 6.41937 11.3621 6.43834 11.3764 6.46041C11.3907 6.48249 11.4005 6.50721 11.4051 6.53314C11.4064 6.53949 11.4064 6.54607 11.4051 6.55242C11.4035 6.55984 11.4035 6.56748 11.4051 6.57489C11.405 6.60868 11.3961 6.64189 11.3794 6.67125C11.3623 6.70234 11.3419 6.73139 11.3184 6.75793L10.7852 7.34246L11.4276 8.33804V8.37015C11.4609 8.41617 11.4869 8.46712 11.5046 8.52112V8.53715C11.5083 8.57436 11.503 8.61193 11.489 8.64661C11.475 8.68129 11.4528 8.71205 11.4243 8.73627C11.3708 8.77676 11.3052 8.79825 11.2381 8.79731C11.1935 8.79915 11.1491 8.78915 11.1096 8.76838C11.0668 8.73969 11.0316 8.70115 11.0068 8.65598L10.4095 7.69251L10.1237 7.9912V8.52751C10.1256 8.59937 10.1003 8.66932 10.053 8.72341C10.0276 8.74822 9.99743 8.76759 9.96429 8.7803C9.93115 8.793 9.89576 8.79879 9.8603 8.79731C9.80104 8.79855 9.74318 8.77925 9.69651 8.7427C9.65115 8.70654 9.62036 8.65524 9.6098 8.59819C9.60663 8.57475 9.60663 8.55095 9.6098 8.52751L9.62907 6.62628Z" fill="#FEE500"/>
</svg>
