<svg width="881" height="183" viewBox="0 0 881 183" fill="none" xmlns="http://www.w3.org/2000/svg">
<path d="M227.478 0.210684H283.96V182.596H227.478V0.210684Z" fill="#E7AB34"/>
<path d="M350.122 0.211111H406.479V69.1351L465.515 0.211111H540.468L473.914 69.0524L543.455 182.596H474.051L435.596 107.59L406.479 138.091V182.596H350.122V0.211111Z" fill="#E74C36"/>
<path d="M673.339 152.49L641.517 47.4874L600.466 182.597H542.922L611.471 0.211355H672.947L741.481 182.597H682.463L673.339 152.49Z" fill="#E74C36"/>
<path d="M741.48 0.211111H880.82V39.4004H798.086V71.2498H868.752V108.075H798.086V182.596H741.48V0.211111Z" fill="#E74C36"/>
<mask id="mask0_62_628" style="mask-type:luminance" maskUnits="userSpaceOnUse" x="0" y="0" width="881" height="183">
<path d="M0 -5.71732e-06H881V183H0V-5.71732e-06Z" fill="white"/>
</mask>
<g mask="url(#mask0_62_628)">
<path d="M2.42304 117.775L57.943 117.969C59.1604 126.389 61.639 132.805 65.3804 137.215C71.4697 144.352 80.1697 147.92 91.4804 147.92C99.9177 147.92 106.422 146.097 110.99 142.447C115.556 138.799 117.84 134.568 117.84 129.757C117.84 125.187 115.664 121.096 111.316 117.488C106.964 113.88 96.8724 110.472 81.0404 107.264C55.1137 101.892 36.627 94.7548 25.579 85.8535C14.443 76.9521 8.87637 65.6068 8.87637 51.8121C8.87637 42.7521 11.7244 34.1908 17.423 26.1321C23.1204 18.0735 31.691 11.7388 43.131 7.1268C54.5697 2.51613 70.2524 0.210806 90.1751 0.210806C114.62 0.210806 133.259 4.40148 146.092 12.7801C158.924 21.1615 171.326 31.7735 168.891 55.3761L113.272 55.7815C111.792 47.8428 108.683 42.0695 103.943 38.4615C99.2004 34.8521 92.655 33.0481 84.303 33.0481C77.4297 33.0481 72.2524 34.3921 68.7737 37.0788C65.2937 39.7655 63.5537 43.0321 63.5537 46.8815C63.5537 49.6895 64.9897 52.2148 67.8604 54.4588C70.643 56.7855 77.255 58.9508 87.6964 60.9548C113.534 66.0881 132.042 71.2801 143.222 76.5308C154.4 81.7841 162.535 88.3001 167.624 96.0775C172.714 103.856 175.259 112.556 175.259 122.179C175.259 133.485 171.866 143.911 165.08 153.453C158.294 162.996 148.811 170.232 136.631 175.163C124.45 180.096 109.096 182.561 90.567 182.561C58.0284 182.561 35.4964 176.788 22.9697 165.24C10.4417 153.695 0.584374 140.857 2.42304 117.775Z" fill="#1271B7"/>
</g>
</svg>
