<svg width="1129" height="515" viewBox="0 0 1129 515" fill="none" xmlns="http://www.w3.org/2000/svg">
<rect x="10" y="10" width="1109" height="313" rx="70" fill="white" stroke="#FF4000" stroke-width="20"/>
<path d="M345.477 75.2107H401.96V257.596H345.477V75.2107Z" fill="#E7AB34"/>
<path d="M468.122 75.2111H524.479V144.135L583.515 75.2111H658.468L591.914 144.052L661.455 257.596H592.051L553.596 182.59L524.479 213.091V257.596H468.122V75.2111Z" fill="#E74C36"/>
<path d="M791.339 227.49L759.517 122.487L718.466 257.597H660.922L729.471 75.2114H790.947L859.481 257.597H800.463L791.339 227.49Z" fill="#E74C36"/>
<path d="M859.481 75.2111H998.821V114.4H916.086V146.25H986.753V183.075H916.086V257.596H859.481V75.2111Z" fill="#E74C36"/>
<mask id="mask0_64_653" style="mask-type:luminance" maskUnits="userSpaceOnUse" x="118" y="75" width="881" height="183">
<path d="M118 75H999V258H118V75Z" fill="white"/>
</mask>
<g mask="url(#mask0_64_653)">
<path d="M120.423 192.775L175.943 192.969C177.16 201.389 179.639 207.805 183.38 212.215C189.47 219.352 198.17 222.92 209.48 222.92C217.918 222.92 224.422 221.097 228.99 217.447C233.556 213.799 235.84 209.568 235.84 204.757C235.84 200.187 233.664 196.096 229.316 192.488C224.964 188.88 214.872 185.472 199.04 182.264C173.114 176.892 154.627 169.755 143.579 160.853C132.443 151.952 126.876 140.607 126.876 126.812C126.876 117.752 129.724 109.191 135.423 101.132C141.12 93.0735 149.691 86.7388 161.131 82.1268C172.57 77.5161 188.252 75.2108 208.175 75.2108C232.62 75.2108 251.259 79.4015 264.092 87.7801C276.924 96.1615 289.326 106.773 286.891 130.376L231.272 130.781C229.792 122.843 226.683 117.069 221.943 113.461C217.2 109.852 210.655 108.048 202.303 108.048C195.43 108.048 190.252 109.392 186.774 112.079C183.294 114.765 181.554 118.032 181.554 121.881C181.554 124.689 182.99 127.215 185.86 129.459C188.643 131.785 195.255 133.951 205.696 135.955C231.534 141.088 250.042 146.28 261.222 151.531C272.4 156.784 280.535 163.3 285.624 171.077C290.714 178.856 293.259 187.556 293.259 197.179C293.259 208.485 289.866 218.911 283.08 228.453C276.294 237.996 266.811 245.232 254.631 250.163C242.45 255.096 227.096 257.561 208.567 257.561C176.028 257.561 153.496 251.788 140.97 240.24C128.442 228.695 118.584 215.857 120.423 192.775Z" fill="#1271B7"/>
</g>
<path d="M572.5 515L496 324H633L572.5 515Z" fill="#FF4000"/>
</svg>
