<svg width="256" height="448" viewBox="0 0 256 448" fill="none" xmlns="http://www.w3.org/2000/svg">
<path d="M128 0C127.54 0 127.083 0.0109994 126.624 0.0149994L132.371 0.0719986C130.914 0.0263987 129.457 0.00239748 128 0ZM250.553 161.211C250.358 161.275 250.139 161.371 249.934 161.48C215.7 174.769 173.597 184 128.048 183.955C82.528 183.879 40.422 174.557 6.23801 161.183C6.03017 161.077 5.81374 160.988 5.591 160.918C4.06 160.364 2.445 160.021 0.75 160.001C0.496 160 0.25 159.988 0 160.001V336.013C0 397.892 57.308 448 128 448C149.992 448 170.687 443.197 188.766 434.645C188.861 434.6 188.957 434.558 189.052 434.512L189.132 434.473C193.985 432.135 198.7 429.521 203.254 426.645C235.219 406.275 256 373.271 256 336.012V160C255.809 159.992 255.504 160 255.311 160C253.584 160.014 252.092 160.651 250.553 161.211ZM189.132 434.424C193.985 432.087 198.7 429.475 203.254 426.599C198.711 429.493 193.995 432.106 189.132 434.424Z" fill="white"/>
<path d="M203.254 426.599C198.7 429.475 193.985 432.087 189.132 434.424C193.995 432.106 198.711 429.493 203.254 426.599ZM132.371 0.0719986L126.624 0.0149994C56.566 0.661999 0 50.547 0 112V134.708C2.16563 136.744 4.60648 138.466 7.25101 139.823C7.92401 140.16 8.637 140.482 9.31 140.819C9.342 140.846 9.38701 140.829 9.41901 140.855C32.176 151.205 60.848 156.656 92.834 159.861C93.528 159.939 94.231 159.968 94.982 159.981C106.24 159.997 111.996 160 112 149.411V64C112 55.164 119.164 48 128 48C136.836 48 144 55.164 144 64V150.328C143.912 160 149.926 160.048 161.2 160.077C161.895 160.065 162.589 160.03 163.281 159.972C163.343 159.969 163.422 159.977 163.525 159.952C195.207 156.833 223.668 151.547 246.333 141.362C247.495 140.817 248.624 140.306 249.74 139.781C251.999 138.549 254.1 137.05 256 135.315V112C256 51.425 201.039 2.09 132.371 0.0719986Z" fill="white"/>
</svg>
