<svg width="40" height="40" viewBox="0 0 40 40" fill="none" xmlns="http://www.w3.org/2000/svg">
<g clip-path="url(#clip0_227_279)">
<path d="M20 40C31.0457 40 40 31.0457 40 20C40 8.9543 31.0457 0 20 0C8.9543 0 0 8.9543 0 20C0 31.0457 8.9543 40 20 40Z" fill="url(#paint0_linear_227_279)"/>
<path fill-rule="evenodd" clip-rule="evenodd" d="M23.1176 24.9844C22.7846 25.1959 22.3678 25.2263 22.0076 25.0654C21.2936 24.6694 19.9916 23.7244 18.1856 21.9184C16.3796 20.1124 15.3506 18.7234 14.9516 18.0184C14.7907 17.6582 14.8211 17.2414 15.0326 16.9084L16.0706 15.0904C16.4426 14.4454 16.5266 14.0374 16.1216 13.4104L13.4546 9.3274C12.6956 8.1274 12.3086 8.1814 11.6546 8.4814C8.2526 10.0294 6.9236 12.2194 11.7506 19.8424C13.0526 21.8974 17.0306 26.2474 20.4236 28.4494C27.6896 33.1684 30.0806 31.7494 31.4996 28.4494C31.7996 27.7834 31.9316 27.3964 30.7886 26.6494L26.6606 24.0244C26.0336 23.6224 25.7276 23.5174 25.0796 23.8924L23.1176 24.9844Z" fill="white"/>
</g>
<defs>
<linearGradient id="paint0_linear_227_279" x1="2000" y1="0" x2="2000" y2="4000" gradientUnits="userSpaceOnUse">
<stop stop-color="#86FC6F"/>
<stop offset="1" stop-color="#0CD419"/>
</linearGradient>
<clipPath id="clip0_227_279">
<rect width="40" height="40" fill="white"/>
</clipPath>
</defs>
</svg>
