<svg width="231" height="64" viewBox="0 0 231 64" fill="none" xmlns="http://www.w3.org/2000/svg">
<path d="M35.8431 8.59503C35.9629 8.78123 36.1178 8.94921 36.138 9.1367C36.3164 9.68618 36.8249 10.0156 36.8861 10.5742C36.9063 10.7617 37.1497 10.8346 37.2747 10.9153C37.4102 11.0937 37.3171 11.2916 37.5801 11.5495C37.7057 11.6289 37.6107 11.8281 37.6328 12.0156C37.7578 12.0976 37.8874 12.181 38.0111 12.2643C39.1465 14.0416 39.2578 16.1081 37.9401 18.0234C37.7305 18.2331 37.526 18.5338 37.4421 18.8255C37.3366 18.9296 37.1139 19.0456 37.0059 19.1484C37.028 19.3372 37.1543 19.4153 37.2891 19.5963C36.7214 19.7435 36.6556 20.2187 36.2201 20.5429C36.1029 20.5536 35.8704 20.5755 35.7552 20.5859C35.4355 20.9023 35.0957 21.0273 34.7695 21.2448C34.6654 21.3502 34.6947 21.6328 34.7044 21.7226C34.1641 22.1523 33.3698 22.4166 32.5436 22.3984C32.431 22.4104 32.3451 22.7005 32.2298 22.7109C31.6452 22.7669 30.9395 22.7382 30.3568 22.7917C30.1139 22.7201 29.9759 22.5469 29.7311 22.474C29.4981 22.4961 29.2669 22.5169 29.0241 22.4466C28.6439 22.1966 28.1673 22.1485 27.7943 21.9948C27.5521 21.9206 27.1081 22.1524 26.8574 21.9882C26.0736 21.3059 25.2975 20.6275 24.8633 19.91C24.5775 19.4647 24.0938 19.3228 23.9245 18.8671C23.9036 18.6796 23.9928 18.3905 23.7474 18.3189C23.2591 18.173 23.4636 17.8736 23.4316 17.5897C23.2858 17.3228 23.263 17.1353 22.9994 16.8762C22.8522 16.608 23.0449 16.2134 22.8893 15.8514C22.8776 15.7577 22.9844 15.6548 22.9746 15.5585C22.7949 15.0103 23.0833 14.4165 23.0313 13.9504C22.9974 13.6691 23.0749 13.2863 23.1589 12.996C23.4492 12.4009 23.7253 11.7134 24.2474 11.1014C24.2343 11.009 24.2148 10.8215 24.2044 10.7264C24.3099 10.6223 24.4271 10.6131 24.5332 10.5064C24.7142 10.0207 24.9043 9.62228 25.2142 9.21863C25.6283 8.70822 26.2858 8.26812 26.8145 7.7473C27.1315 7.43479 27.5781 7.20432 27.875 6.70302C27.9798 6.59756 28.3516 6.75248 28.4583 6.64968C28.776 6.33848 29.252 6.38666 29.5801 6.1653C29.9089 5.94786 29.8438 6.42443 30.1823 6.29677C30.4147 6.27731 30.5215 6.17304 30.7422 6.05849C31.0807 5.93089 31.4609 6.17821 31.8216 6.23816C32.1706 6.20563 32.5306 6.26936 32.9115 6.5142C33.4173 6.84494 34.5814 6.73165 34.7695 7.37879C35.0527 7.8228 35.5586 8.15102 35.8431 8.59503Z" fill="#BE1135"/>
<path d="M55.541 15.9804C55.529 15.6901 55.541 15.5117 55.4225 15.2031C55.3913 14.9114 55.6243 14.5885 55.5214 14.1901C55.4582 14.0846 55.3073 13.957 55.3261 13.8659C55.5214 13.2539 55.539 12.694 55.4908 12.0234C55.44 11.8255 55.3763 11.7161 55.3073 11.6067C55.3215 11.5182 55.3587 11.3385 55.3913 11.1562C55.4049 10.5963 55.2252 10.1797 55.0605 9.67315C55.0124 9.47784 54.8619 9.34893 54.8307 9.06247C54.765 8.95314 54.6172 8.8242 54.6321 8.73435C54.7799 7.92185 54.3854 7.2721 54.2669 6.49476C54.0853 5.60934 53.2467 5.04945 52.9824 4.14841C52.9957 4.05601 53.2702 4.09375 53.3541 4.11201C54.0123 4.72529 54.7402 5.44924 54.9199 6.33204C55.0351 6.64455 54.9856 6.91279 55.1204 7.12894C55.679 7.81514 55.778 8.68232 55.8789 9.55081C55.8626 9.64201 56.0442 9.586 56.1074 9.69663C56.0918 9.78649 56.0586 9.96616 56.125 10.0755C56.5527 10.543 56.2904 11.0469 56.3757 11.5365C56.4231 11.737 56.4857 11.8451 56.5527 11.9532C56.5378 12.0456 56.3242 12.2813 56.3047 12.3672C56.653 12.8203 56.8014 13.418 56.7057 13.957C57.1016 14.1406 56.9206 14.6641 57.0163 15.0599C57.0814 15.1706 57.166 15.1875 57.2493 15.2058C57.3632 15.043 57.4772 14.8815 57.5104 14.6993C57.5592 13.9571 57.5937 13.306 57.4609 12.6237C57.3451 12.3151 57.3093 12.0235 57.5253 11.7917C57.3619 11.754 57.3092 11.5547 57.2447 11.4466C56.9492 10.2539 56.8255 8.91928 56.4752 7.70053C56.4752 7.70053 56.5703 7.62893 56.5898 7.53777C56.4648 6.47007 55.651 5.46616 55.2649 4.38934C55.205 4.19663 54.8919 3.96617 54.7447 3.76305C54.7447 3.76305 54.7567 3.67065 54.7648 3.57816C55.1815 3.63416 55.4986 4.03908 55.7193 4.34767C56.1529 4.96616 56.6529 5.65238 56.7863 6.33858C57.0162 6.94926 57.3573 7.59768 57.494 8.19795C57.5851 8.59508 57.8762 8.8568 58.0676 9.18753C58.1757 9.49743 58.1209 9.76434 58.1477 10.056C58.2662 10.7461 58.4752 11.4128 58.606 12.1016C58.7734 12.6068 58.8404 13.1823 58.6744 13.6185C58.444 14.4128 58.9707 15.28 59.1855 15.9844C59.3 16.293 59.153 16.6367 59.0227 16.8893C59.0071 16.9779 59.153 17.1042 59.1354 17.1953C58.9883 17.5378 59.1061 17.8477 59.039 18.2084C58.9408 18.2786 59.1529 18.5144 59.039 18.6745C58.9408 18.7488 58.8606 18.7318 58.7584 18.8048C58.6269 19.0574 58.7422 19.3647 58.694 19.6368C58.4297 20.1394 58.5626 20.8256 58.069 21.1889C57.8861 21.2422 57.8704 21.3334 57.7708 21.4063C57.8542 21.4233 57.9212 21.5326 57.9844 21.642C57.8861 21.7123 57.8027 21.6941 57.7051 21.7669C57.6746 21.9453 58.0234 22.1693 58.0885 22.2761C57.9576 22.9987 57.4154 23.6328 57.4316 24.4844C57.3978 24.6628 57.349 24.9336 57.3178 25.1159C57.1518 25.5469 56.8386 25.8568 56.6752 26.2891C56.6427 26.4701 56.2976 26.4883 56.2631 26.668C56.0496 26.9037 56.0671 27.2839 55.918 27.6276C55.8042 27.7891 55.5574 27.7357 55.3588 27.8802C55.1303 28.2018 55.1602 28.4935 55.0131 28.8372C54.765 29.2526 54.4662 29.7005 54.2201 30.1159C53.9395 30.7096 53.4675 31.2865 52.9578 31.7383C52.8764 31.72 52.6947 31.7735 52.5951 31.8476C52.3334 32.3515 52.03 32.7343 51.4721 32.9856C51.3881 32.97 51.2657 33.3606 51.1661 33.4336C50.7807 33.7226 50.5587 34.0481 50.0906 34.3203C49.9174 34.3736 49.8191 34.4466 49.6251 34.1224C49.0137 35.2057 48.1941 36.056 47.3074 36.7981C46.8445 37.069 46.3725 37.0377 46.0658 37.3424C45.0541 38.3385 43.4486 39.3945 43.2663 39.5416C43.1882 39.5234 42.8796 39.983 42.8796 39.983C42.5528 40.0117 42.7397 40.0429 42.4389 39.971C42.4389 39.971 42.4226 40.4828 42.0137 40.5661C41.1426 40.7367 40.9115 41.7471 40.8477 42.1637C40.8113 42.3721 40.668 42.2315 40.5671 42.3161C40.4708 42.3994 40.5352 42.5231 40.4356 42.6091C40.0587 42.8421 39.7344 43.3057 39.4167 43.6612C39.3204 43.7458 39.2533 43.6195 39.1537 43.7054C39.058 43.7887 38.5945 44.3643 38.4291 44.863C38.0333 45.7458 37.5997 46.5309 37.0561 47.1546C36.9213 47.307 37.3627 47.8942 37.3295 48.0947C37.2032 48.3721 36.9538 48.419 36.8295 48.6963C36.7169 49.3864 36.6856 50.1559 36.5684 50.8864C36.3692 51.5999 36.6147 52.1078 36.7123 52.7419C36.821 53.2809 36.6811 53.9723 36.711 54.4919C36.7481 54.9138 37.0339 55.3695 36.9884 55.7757C37.0014 56.4033 36.8601 56.32 36.9942 56.8434C36.9766 57.1507 36.8757 57.4541 36.948 57.665C36.9213 58.0778 36.8562 58.3317 36.8341 58.7393C36.7442 58.8421 36.5684 59.0322 36.5619 59.1364C36.4988 60.1624 35.8288 61.07 35.1225 61.7419C34.685 62.0231 34.3087 62.4502 33.8106 62.415C33.56 62.4008 32.7247 62.9307 32.446 62.9958C31.7065 63.2041 31.1159 63.2067 30.4102 63.1091C29.6283 62.8982 29.0105 62.7016 28.4708 61.9034C28.1531 61.5466 27.6036 61.6794 27.3972 61.1326C27.3334 60.9164 26.8816 60.8044 26.8074 60.6898C26.3992 60.3227 26.1817 59.8747 25.8757 59.419C25.668 58.8747 25.8191 58.501 25.5723 57.9711C25.3152 57.6456 25.2045 57.4177 24.9499 57.0909C24.6094 56.6612 25.0294 56.0414 24.7774 55.6143C24.6023 55.501 24.4343 55.2862 24.3529 55.0727C24.1856 54.6508 24.2253 54.0388 23.9747 53.5922C23.8367 53.057 23.9245 51.1221 24.0268 50.6C24.0482 50.4945 23.7475 50.3461 23.7631 50.2419C23.8074 49.4919 24.0671 48.7615 24.0072 47.9854C24.0847 47.5688 24.0482 47.2354 24.4239 46.88C24.4239 46.88 24.2475 46.7341 24.2657 46.6287C24.4851 46.0258 24.4825 45.557 24.6023 44.9294C24.6231 44.8266 24.8419 44.7615 24.862 44.656C24.7409 44.1951 24.7358 43.2628 24.8139 42.8448C24.8549 42.6339 25.3939 42.324 25.5203 42.1352C25.5391 42.0349 25.4408 41.7628 25.6426 41.4034C25.6954 41.3135 25.8353 41.3409 25.9408 41.2563C25.9584 41.1508 25.8881 41.0284 25.907 40.9242C25.9597 40.6104 26.487 40.3852 26.5248 40.1768C26.7344 39.4672 27.0906 39.1703 27.4636 38.5909C27.599 38.3383 27.6505 38.0662 27.8705 37.8344C27.9669 37.7628 28.0183 37.8317 28.0359 37.738C28.0522 37.6508 28.0053 37.4489 28.0183 37.3578C28.2286 37.1221 28.5183 36.9086 28.5645 36.6364C28.711 36.294 28.8393 36.0414 29.0489 35.8044C29.4356 35.5166 29.821 35.225 30.0613 34.8109C30.2696 34.5752 30.5124 34.6312 30.7221 34.3955C31.0255 34.0843 31.1075 33.6364 31.3308 33.3096C31.8627 32.6768 32.4415 32.2432 33.0196 31.8083C33.5033 31.445 34.116 31.3018 34.5815 31.0297C35.0645 30.6703 35.3536 29.9828 35.821 29.7119C36.1075 29.4971 36.4454 29.4763 36.739 29.2601C37.0268 29.044 37.2676 28.6273 37.7012 28.5349C38.6628 28.2823 37.9747 28.5531 38.8764 28.1924C39.4376 27.8513 39.2051 27.7536 39.7663 27.4099C40.7012 26.8682 41.1843 26.5192 41.2644 26.5401C41.362 26.4685 41.4571 26.3929 41.489 26.2132C41.7156 25.8864 42.9096 25.0518 43.0873 24.9971C43.2631 24.9424 43.4747 25.1768 43.6804 24.9424C43.7931 24.7797 43.5671 24.6364 43.6804 24.4724C43.9864 24.1638 44.2794 23.7484 44.5776 23.5323C44.6758 23.462 44.9063 23.6052 45.086 23.5492C45.1856 23.4776 45.2175 23.2992 45.3171 23.2263C45.4343 23.0623 45.2175 22.8305 45.3321 22.6664C45.4649 22.4112 45.5964 22.1599 45.7774 22.1078C46.0586 21.9802 46.4369 21.7797 46.3881 21.5844C46.4513 21.2224 46.6016 20.8773 46.9798 20.6781C46.9954 20.5909 47.015 20.4945 47.028 20.406C47.2415 20.1716 47.4407 20.0297 47.6549 19.7953C47.8841 19.4698 47.7845 19.0727 47.9192 18.8175C48.345 18.3474 48.7584 17.9698 48.8724 17.337C48.8405 17.0479 48.6588 16.6326 48.7884 16.3761C48.9029 16.2159 49.2649 16.1078 49.2988 15.9268C49.3632 15.5636 49.1836 15.1495 49.1673 14.7706C49.2143 14.4997 49.5104 14.281 49.4792 13.9932C49.4453 13.2341 49.4948 12.4919 49.3802 11.7159C49.6407 11.682 49.6778 11.4984 49.7064 11.3175C49.6407 10.7406 49.3119 10.2003 49.1667 9.60261C49.1484 9.2224 49.4584 8.9151 49.444 8.53621C49.4082 8.24714 49.1322 7.9034 48.8327 7.65079C48.5534 7.30704 48.7351 6.7849 48.6354 6.38777C48.5534 5.89818 48.1882 5.53622 48.1224 4.96069C48.0899 4.67033 47.7442 4.68986 47.6289 4.38126C47.5293 3.98413 47.4317 3.58567 47.4317 3.11563C47.3815 2.91641 47.1172 2.95417 46.9701 2.82657C46.6381 2.28491 46.7565 1.18205 46.0306 0.930739C46.0957 0.567459 45.7689 0.495836 45.6504 0.191156C46.0801 0.191156 46.4746 0.370841 46.7214 0.894281C46.7851 1.00108 47.0339 1.05835 47.1159 1.07527C47.3334 1.30964 47.3158 1.86954 47.5469 2.01668C47.8418 2.26668 48.2858 2.17683 48.4017 2.48543C48.5671 2.98933 48.9466 3.26017 49.1296 3.67683C49.112 3.76803 49.1615 3.96589 49.226 4.07397C49.5255 4.32657 49.558 4.61564 49.7683 4.85001C50.2637 5.42813 50.7592 6.00887 50.5261 6.80183C50.3816 7.14559 50.8256 7.05574 50.9591 7.27188C51.2885 7.81226 51.1563 8.53621 51.5841 9.00496C51.5021 9.92682 51.9493 10.7784 52.2299 11.5896C51.7514 12.3292 52.017 13.63 52.3966 14.3695C52.3966 14.3695 52.6583 14.3357 52.6778 14.2446C52.7579 13.7941 53.5802 13.6417 53.4473 13.4243C53.2826 12.9178 53.0352 11.8618 53.0352 11.393C53.0834 10.6522 53.1154 10.0011 53 9.22247C52.9343 9.11313 52.8686 9.00502 52.8028 8.89825C52.7032 8.49981 52.6036 8.10008 52.6856 7.65085C52.6386 7.45164 52.4896 7.32794 52.4408 7.12611C52.4564 7.03758 52.4896 6.85789 52.5047 6.76544C52.6856 6.7121 52.9194 6.85783 53.0821 6.89436C53.2338 7.01929 53.0965 7.27198 53.1641 7.38006C53.4278 7.81235 53.823 7.99464 53.9043 8.48292C53.8901 8.57012 53.8581 8.75243 53.8418 8.84358C53.9075 9.42301 54.252 9.87484 54.3359 10.3618C54.3711 10.6522 54.125 11.0649 54.239 11.3735C54.6173 12.1131 54.6342 12.9634 54.571 13.7941C54.502 14.1548 54.963 14.4452 54.8321 14.6964C54.7038 14.9504 54.868 14.9868 54.7332 15.2407C54.7182 15.3319 54.5359 15.3827 54.5216 15.4751C54.767 15.9985 54.3953 16.7928 54.312 17.2472C54.2976 17.3358 54.5926 17.4321 54.6525 17.1001C54.6889 16.9009 55.0327 16.9009 55.2123 16.8501C55.4109 16.7017 55.5573 16.3567 55.541 15.9804ZM57.3165 17.7863C57.3314 17.3254 57.5476 16.992 57.4643 16.5051C57.2989 15.9985 56.9265 16.501 56.6616 16.5362C56.812 17.1313 56.5658 17.5467 56.3849 18.0701C56.2703 18.2342 56.1876 18.6847 56.4499 18.6495C56.8634 18.7407 57.3015 18.3462 57.3165 17.7863ZM56.6107 20.2589C56.713 20.1144 56.6654 19.8253 56.517 19.699C56.2892 19.5532 55.989 19.7706 55.8582 20.0245C55.7221 20.2758 55.8243 20.6743 56.1726 20.656C56.2527 20.6743 56.4936 20.4243 56.6107 20.2589Z" fill="#2E86D0"/>
<path d="M51.7643 4.84633C52.2038 5.17705 52.3763 5.73306 52.7226 6.18487L52.6856 6.36717C52.0814 6.8893 51.5508 6.0182 51.3854 5.5156C51.14 4.99216 50.8926 4.46872 50.4447 4.08852C50.4636 3.99732 50.4799 3.90753 50.4987 3.81638C50.2812 3.582 50.0046 3.23956 50.2813 3.11196C50.3946 2.95049 50.5944 3.27473 50.8255 3.41925C51.1706 3.87108 51.2363 4.44789 51.7643 4.84633Z" fill="#2E86D0"/>
<path d="M54.2585 2.52602C54.2625 2.61842 54.1159 2.77472 54.0957 2.86456C53.8106 2.60024 53.5228 2.33331 53.2747 1.8906C53.1941 1.8646 53.0306 1.82554 52.9681 1.71222C52.8874 1.69009 52.9037 1.60155 52.9258 1.513C53.1882 1.4882 53.3959 1.73045 53.6205 1.8854C53.7013 1.9062 53.8034 1.84112 53.8855 1.86072C54.1088 2.01306 54.2363 2.23697 54.2585 2.52602Z" fill="#2E86D0"/>
<path d="M17.0794 19.155C17.1589 19.2214 17.2774 19.3229 17.3392 19.405C17.4714 19.4922 17.6087 19.5014 17.7526 19.4375C17.888 19.4495 18.0111 19.8034 18.1497 19.8125C18.349 19.9062 18.4714 20.2578 18.6667 20.4271C18.7969 20.5104 18.9356 20.638 19.0684 20.7253C19.2552 20.9661 19.3763 21.2031 19.571 21.3724C19.6986 21.5326 19.9089 21.4765 20.0475 21.4857C20.3164 21.5847 20.4251 21.9727 20.6146 22.2162C20.6842 22.2202 20.8034 22.4597 20.8001 22.5352C20.9316 22.6199 21.0586 22.7813 21.2591 22.8737C21.319 22.9544 21.3119 23.1055 21.3718 23.1876C21.8665 23.987 22.5202 24.4936 22.9408 25.362C22.9408 25.362 22.9961 25.5183 22.9922 25.5951C23.5078 26.0912 23.7318 26.793 24.1738 27.3594C24.2949 27.5951 24.4063 27.9857 24.5176 28.2956C24.6445 28.4584 24.7774 28.5469 24.9017 28.7097C25.0873 29.0248 25.2669 29.4206 25.3067 29.8034C25.2976 29.9506 25.1953 30.3998 24.9356 30.1511C24.6153 29.8217 24.6478 29.3724 24.3216 29.1172C24.3275 29.0404 24.2383 28.8412 24.1738 28.7644C24.043 28.6094 23.8073 28.6172 23.752 28.3868C23.7689 28.1602 23.515 27.9753 23.3854 27.8191C23.058 27.3503 22.5814 27.1758 22.1895 26.7032C22.1185 26.7005 22.0482 26.6979 21.9779 26.7683C21.905 26.9154 21.6901 27.1315 21.8854 27.3685C22.1563 27.5339 22.2806 27.8438 22.6192 28.0104C22.8197 28.1706 22.8705 28.6276 22.9922 29.013C23.1237 29.168 23.2565 29.3255 23.4609 29.4141C23.6589 29.5716 23.5807 29.8138 23.7689 30.0573C23.763 30.1341 23.6901 30.2019 23.683 30.2761C23.8073 30.5157 24.0827 30.4597 24.2747 30.7018C24.4206 30.5651 24.6237 30.6745 24.7442 30.8946C24.5215 31.1068 24.5775 31.2617 24.4935 31.4844C24.2591 31.8412 24.7878 32.1875 25.1165 32.3659C25.3255 32.3828 25.2975 32.7591 25.4903 32.9258C25.6133 33.1641 25.9557 33.1927 26.1393 33.5117C26.1992 33.668 26.0547 33.7318 25.974 33.8776C25.9583 34.1029 26.2272 34.2005 26.3587 34.2865C26.4883 34.3737 26.5488 34.5313 26.6048 34.6875C26.3939 34.7435 25.9876 34.4649 25.7806 34.4453C25.653 34.3867 25.4024 34.0886 25.1419 34.0326C25.0495 34.0118 24.9844 34.2292 24.8887 34.2084C24.763 34.1836 24.6302 34.1602 24.4935 34.1341C24.3483 34.1093 23.9974 33.7239 23.8483 33.7018C23.6758 33.6706 23.4655 33.987 23.2988 33.9583C22.6777 33.8528 22.653 33.8099 22.4583 33.7292C22.2292 33.6368 22.0085 33.5286 21.8053 33.414C21.6706 33.3398 21.7077 33.1614 21.5827 33.0833C21.457 33.0013 21.1869 33.0013 21.0612 32.9231C20.5658 32.6185 20.097 31.931 19.6738 31.7109C19.3932 31.5651 19.1576 31.4219 18.8483 31.2747C18.6947 31.1783 18.5879 30.9661 18.3965 30.9036C17.8132 30.707 17.3477 30.3372 16.681 30.151C15.4219 29.7929 14.375 30.5156 13.3522 31.0455C13.2969 31.0442 13.1901 31.0335 13.1341 31.0729C12.8965 31.2747 12.6205 31.3828 12.3854 31.5377C12.0664 31.7903 11.627 31.8567 11.2761 32.0625C11.1634 32.1275 11.1517 32.3307 11.0443 32.3971C10.877 32.496 10.5794 32.517 10.416 32.6158C10.2663 32.7148 10.2474 32.8893 10.1016 32.9961C9.81056 33.2343 9.52149 33.4258 9.12501 33.6132C8.89714 33.7291 7.00977 34.0533 6.69531 34.0573C6.20899 34.0653 5.87111 34.4674 5.14649 34.4648C4.04299 34.4595 2.93881 34.4375 2.0228 33.7525C1.82878 33.5846 1.79038 33.1263 1.66147 33.0416C1.26499 32.7812 1.30405 32.2565 1.19141 31.8645C1.06251 31.7799 0.78842 31.7591 0.804047 31.5299C0.95574 30.4062 1.51304 29.3867 2.19337 28.6106C2.35418 28.3164 2.70769 28.1966 2.73569 27.819C2.73569 27.819 3.34766 26.957 3.72071 26.6106C3.80143 26.4648 3.6797 26.2252 3.75977 26.082C4.32293 24.9908 5.34375 24.2395 6.17643 23.2435C6.3991 23.0351 6.5573 22.7421 6.90755 22.6953C7.04753 22.7073 7.18231 22.7174 7.26043 22.5729C7.42449 22.207 7.72006 22.0052 7.93621 21.8698C8.73569 21.3255 9.40301 20.5078 10.3164 20.3554C10.4577 20.2917 10.5384 20.1484 10.6784 20.0807C10.8307 19.9414 11.0925 20.1146 11.2337 20.0507C11.9121 19.7434 12.5313 19.0897 13.2272 18.9934C13.3698 18.9295 13.4518 18.7838 13.5176 18.789C14.1361 18.8423 14.8646 18.2942 15.4453 18.8736C15.9675 18.7655 16.7513 18.875 17.0794 19.155ZM21.8132 25.7773C21.8158 25.703 21.8184 25.6275 21.8204 25.552C21.5515 25.3867 21.4317 24.927 21.0879 24.8359C21.0209 24.8305 20.8809 24.8997 20.8764 24.9765C20.8601 25.4309 21.0547 25.7408 21.2461 26.1275C21.3269 25.8307 21.5306 25.8411 21.6602 26.0729C21.7325 26.0013 21.8073 25.8541 21.8132 25.7773Z" fill="#359A3E"/>
<path d="M85.6048 34.6067L82.7799 37.5468L74.9232 29.8867C73.8906 31.7161 72.6634 33.2747 71.2311 34.5494C69.7982 35.8268 68.375 36.8645 66.9557 37.664L64.2083 34.5286C65.7558 33.7552 67.0775 32.8541 68.1732 31.8216C69.2702 30.7916 70.166 29.707 70.8619 28.5703C71.5586 27.4362 72.0683 26.2747 72.3932 25.0898C72.7129 23.9036 72.8763 22.7421 72.8763 21.608V16.1901H77.2083V20.832C77.2083 21.7343 77.1516 22.5989 77.0345 23.4257C76.918 24.2513 76.7675 25.0507 76.5892 25.8255L85.6048 34.6067ZM94.5807 47.9166H90.4778V27.1783H81.9277V23.2304H90.4778V12.7083H94.5807V47.9166Z" fill="white"/>
<path d="M131.703 32.5208H117.038V34.4544H124.311V43.5456H110.268V45.2903H125.241V49.2318H106.013V39.7916H120.017V38.2461H105.818V34.4544H112.898V32.5208H98.5436V28.651H131.703V32.5208ZM123.962 20.0612C123.962 21.1706 123.726 22.1823 123.247 23.0989C122.771 24.0156 122.133 24.8086 121.335 25.4804C120.508 26.1224 119.532 26.625 118.409 26.9883C117.29 27.3476 116.07 27.5286 114.755 27.5286C113.516 27.5286 112.35 27.3593 111.254 27.0247C110.158 26.6914 109.182 26.2018 108.331 25.556C107.508 24.9101 106.854 24.1289 106.378 23.2161C105.902 22.2995 105.663 21.2604 105.663 20.1002C105.663 18.9414 105.893 17.888 106.358 16.9479C106.825 16.0052 107.468 15.1979 108.292 14.5273C109.093 13.8593 110.047 13.3411 111.158 12.9817C112.265 12.6198 113.466 12.4388 114.755 12.4388C116.019 12.4388 117.213 12.6198 118.335 12.9817C119.457 13.3411 120.429 13.8593 121.257 14.5273C122.081 15.1719 122.738 15.9674 123.228 16.9062C123.718 17.8502 123.962 18.9023 123.962 20.0612ZM119.707 20.0234C119.707 18.8099 119.217 17.8568 118.237 17.1602C117.256 16.4635 116.096 16.1159 114.755 16.1159C113.362 16.1159 112.194 16.4557 111.254 17.1419C110.312 17.8242 109.84 18.7838 109.84 20.0234C109.84 21.2096 110.312 22.1393 111.254 22.8099C112.194 23.4805 113.362 23.8138 114.755 23.8138C116.096 23.8138 117.256 23.5065 118.237 22.8867C119.217 22.2695 119.707 21.3099 119.707 20.0234Z" fill="white"/>
<path d="M166.538 35.0508H133.419V31.1419H166.538V35.0508ZM159.341 49.2318H155.202V41.1653H140.382V37.2187H159.341V49.2318ZM159.264 29.1302H140.539V13.888H159.032V17.7956H144.639V19.4596H158.569V23.4062H144.639V25.2252H159.264V29.1302Z" fill="white"/>
<path d="M185.113 30.7005H169.369V14.6041H173.468V19.2461H180.973V14.6041H185.113V30.7005ZM180.973 26.7916V23.1536H173.468V26.7916H180.973ZM196.759 49.2318H177.764V39.5195H191.573V37.5104H177.569V33.6002H195.831V43.3138H182.097V45.3255H196.759V49.2318ZM197.07 32.4791H193.007V28.7265H186.354V24.8554H193.007V22.0716H186.354V18.1627H193.007V12.7083H197.07V32.4791Z" fill="white"/>
<path d="M222.307 34.7239L219.486 37.664L211.669 29.9635C210.661 31.8216 209.441 33.3893 208.013 34.6653C206.579 35.9414 205.128 36.9804 203.658 37.7799L200.912 34.6445C202.485 33.7955 203.82 32.8541 204.917 31.8216C206.012 30.7916 206.91 29.7187 207.607 28.6106C208.277 27.4765 208.772 26.3255 209.094 25.1666C209.416 24.0052 209.578 22.858 209.578 21.7226V16.1901H213.911V20.9505C213.911 21.8528 213.854 22.7109 213.737 23.5208C213.622 24.3333 213.473 25.1159 213.29 25.8632L222.307 34.7239ZM230.781 47.9166H226.643V12.7083H230.781V47.9166Z" fill="white"/>
<path d="M70.3893 61.1797C70.3893 61.8802 70.1498 62.401 69.6732 62.737C69.1914 63.0729 68.5378 63.2422 67.7168 63.2422C67.556 63.2422 67.3939 63.2328 67.2377 63.2148C67.0775 63.1927 66.9206 63.1706 66.7656 63.1459C66.6074 63.1134 66.4564 63.0782 66.3093 63.0431C66.1608 63.0079 66.0202 62.9689 65.8893 62.9325V61.8921C65.9661 61.9233 66.0677 61.9624 66.1817 62.0145C66.2989 62.0614 66.4356 62.1109 66.599 62.1525C66.763 62.1981 66.9427 62.2384 67.1446 62.2711C67.3457 62.3049 67.5684 62.3205 67.8132 62.3205C67.9987 62.3205 68.1745 62.3049 68.3451 62.2711C68.5176 62.2385 68.6712 62.1799 68.8067 62.0966C68.9356 62.0171 69.0436 61.913 69.1224 61.7789C69.2057 61.6486 69.2442 61.4833 69.2442 61.2893C69.2442 61.1018 69.209 60.9403 69.1315 60.8075C69.0586 60.6734 68.9635 60.5627 68.8437 60.4729C68.7297 60.3778 68.5996 60.2932 68.4564 60.2242C68.3125 60.1539 68.1745 60.0861 68.0416 60.0145C67.8105 59.9129 67.5709 59.7958 67.3151 59.6656C67.0566 59.5353 66.8177 59.3856 66.5905 59.219C66.3685 59.0562 66.1862 58.87 66.043 58.6539C65.8958 58.439 65.8216 58.189 65.8216 57.9052C65.8216 57.2736 66.043 56.801 66.4798 56.4963C66.9147 56.1916 67.4779 56.0393 68.1653 56.0393C68.3262 56.0393 68.4902 56.0513 68.6582 56.0731C68.8203 56.0939 68.9811 56.124 69.1367 56.1552C69.2864 56.1942 69.431 56.2319 69.5683 56.2658C69.7083 56.3049 69.8327 56.3349 69.9407 56.3595V57.4103C69.7715 57.3205 69.5182 57.228 69.1966 57.1382C68.8711 57.047 68.5058 56.9911 68.0944 56.9702C67.7669 56.9702 67.4935 57.0445 67.2806 57.1864C67.067 57.327 66.9583 57.5431 66.9583 57.8296C66.9583 57.965 66.987 58.0822 67.0449 58.1772C67.1054 58.2762 67.1835 58.3634 67.2805 58.439C67.3763 58.5198 67.4882 58.59 67.6132 58.6538C67.7415 58.7176 67.8717 58.7853 68.0116 58.8595L68.7382 59.1994C68.8938 59.2945 69.067 59.3934 69.2538 59.4884C69.4413 59.586 69.6204 59.7059 69.789 59.8387C69.9511 59.9846 70.0885 60.1603 70.2004 60.3739C70.3143 60.5887 70.3783 60.8581 70.3893 61.1797Z" fill="white"/>
<path d="M75.4889 63.1393H71.3939V56.1484H75.3913V57.0794H72.4648V59.0156H75.2715V59.9492H72.4648V62.2044H75.4889V63.1393Z" fill="white"/>
<path d="M82.487 59.6276C82.487 60.1133 82.4264 60.5729 82.304 61.0104C82.181 61.4492 81.9941 61.8307 81.7409 62.1641C81.4772 62.4948 81.1491 62.7552 80.748 62.9505C80.3444 63.1458 79.8665 63.2422 79.3001 63.2422C78.7754 63.2422 78.3112 63.1498 77.9108 62.9661C77.5143 62.7799 77.1855 62.5273 76.918 62.2018C76.6523 61.8789 76.4518 61.4961 76.3125 61.0547C76.179 60.6133 76.1113 60.138 76.1113 59.6276C76.1113 59.1524 76.1791 58.7005 76.3125 58.2656C76.4518 57.8307 76.6523 57.4492 76.918 57.1185C77.1855 56.7865 77.5143 56.526 77.9108 56.3307C78.3112 56.1354 78.7754 56.0391 79.3001 56.0391C79.8242 56.0391 80.2858 56.1315 80.6855 56.3164C81.082 56.5 81.4167 56.7526 81.6849 57.0794C81.9486 57.4037 82.1491 57.7826 82.2851 58.2161C82.4186 58.6523 82.487 59.1211 82.487 59.6276ZM81.4271 59.6156C81.4271 59.2536 81.3848 58.9085 81.2988 58.5791C81.2083 58.2536 81.0794 57.9645 80.9062 57.7211C80.7285 57.4828 80.5078 57.2888 80.2448 57.1416C79.9765 56.9971 79.6634 56.9229 79.3001 56.9229C78.9772 56.9229 78.6816 56.9906 78.4199 57.1299C78.1569 57.264 77.9329 57.4515 77.7526 57.6911C77.5644 57.9372 77.4245 58.225 77.3255 58.5505C77.2272 58.8773 77.181 59.2367 77.181 59.6273C77.181 59.988 77.22 60.3369 77.302 60.6664C77.384 60.9958 77.5091 61.2888 77.6855 61.5414C77.8587 61.794 78.0813 61.9971 78.3483 62.1482C78.6126 62.3018 78.9296 62.3773 79.3001 62.3773C79.6542 62.3773 79.9661 62.3084 80.2343 62.1664C80.498 62.027 80.7207 61.8304 80.9062 61.5791C81.0794 61.3343 81.2083 61.0414 81.2988 60.7067C81.3846 60.3682 81.4271 60.0049 81.4271 59.6156Z" fill="white"/>
<path d="M88.6035 60.5039C88.6035 60.789 88.5631 61.0924 88.4863 61.4127C88.4089 61.7331 88.2702 62.0273 88.0768 62.3021C87.8841 62.5729 87.6191 62.7982 87.2852 62.9778C86.9531 63.1549 86.528 63.2435 86.0176 63.2435C85.4909 63.2435 85.0592 63.1549 84.7304 62.9831C84.3952 62.806 84.1361 62.5872 83.9564 62.3216C83.7682 62.0482 83.6406 61.7526 83.5709 61.4323C83.5065 61.1094 83.4687 60.8008 83.4687 60.5039V56.1484H84.5572V60.4857C84.5572 60.7109 84.5787 60.9323 84.6171 61.1484C84.6587 61.3659 84.7304 61.5625 84.843 61.7396C84.9498 61.9127 85.0995 62.0547 85.2903 62.1588C85.4771 62.2682 85.718 62.3216 86.0175 62.3216C86.3033 62.3216 86.5396 62.2695 86.7336 62.1666C86.9224 62.0612 87.0761 61.9231 87.1933 61.7474C87.3111 61.5729 87.3918 61.3737 87.4426 61.1562C87.4895 60.9336 87.5117 60.7109 87.5117 60.4857V56.1484H88.6035L88.6035 60.5039Z" fill="white"/>
<path d="M94.2884 63.1185H90.0703V56.1484H91.151V62.1849H94.2884V63.1185Z" fill="white"/>
<path d="M104.777 63.1289H103.787V57.6927H103.767L101.938 63.1289H100.957L99.1368 57.6927H99.1075V63.1289H98.1166V56.1484H99.5853L101.444 61.776H101.482L103.318 56.1484H104.777L104.777 63.1289Z" fill="white"/>
<path d="M110.386 63.1393H106.295V56.1484H110.29V57.0794H107.363V59.0156H110.174V59.9492H107.363V62.2044H110.386V63.1393Z" fill="white"/>
<path d="M115.649 57.0937H113.7V63.1588H112.63V57.0937H110.693V56.1692H115.649V57.0937Z" fill="white"/>
<path d="M121.141 63.1458H120.041L119.758 61.8021C119.671 61.3984 119.54 61.0547 119.366 60.7839C119.195 60.5117 118.982 60.3268 118.731 60.2292C118.672 60.2372 118.613 60.2385 118.557 60.2385C118.494 60.2385 118.437 60.2385 118.381 60.2385H117.815V59.3075H118.37C118.559 59.3075 118.742 59.2933 118.918 59.2619C119.095 59.2333 119.254 59.1773 119.391 59.0927C119.535 59.0159 119.645 58.9012 119.731 58.7515C119.815 58.6044 119.857 58.4091 119.857 58.1682C119.857 57.9533 119.812 57.775 119.714 57.6356C119.619 57.4898 119.496 57.3817 119.34 57.3036C119.195 57.2216 119.026 57.1578 118.838 57.1252C118.649 57.0888 118.462 57.0731 118.275 57.0731H117.465V63.1369H116.415V56.1356H118.282C118.607 56.1356 118.93 56.1668 119.248 56.2306C119.571 56.2905 119.857 56.3934 120.112 56.5444C120.37 56.6955 120.577 56.8999 120.738 57.1629C120.898 57.4246 120.975 57.7606 120.975 58.1681C120.975 58.6278 120.877 58.9989 120.685 59.2775C120.49 59.5561 120.241 59.7684 119.945 59.9194C120.127 60.0809 120.302 60.2918 120.468 60.5457C120.639 60.8009 120.753 61.1017 120.822 61.4455L121.141 63.1458Z" fill="white"/>
<path d="M128.177 59.6276C128.177 60.1133 128.117 60.5729 127.997 61.0104C127.87 61.4492 127.684 61.8307 127.43 62.1641C127.169 62.4948 126.842 62.7552 126.441 62.9505C126.038 63.1458 125.553 63.2422 124.991 63.2422C124.467 63.2422 124.005 63.1498 123.607 62.9661C123.206 62.7799 122.873 62.5273 122.607 62.2018C122.344 61.8789 122.141 61.4961 122.004 61.0547C121.87 60.6133 121.799 60.138 121.799 59.6276C121.799 59.1524 121.87 58.7005 122.004 58.2656C122.141 57.8307 122.344 57.4492 122.607 57.1185C122.873 56.7865 123.206 56.526 123.607 56.3307C124.005 56.1354 124.467 56.0391 124.991 56.0391C125.515 56.0391 125.977 56.1315 126.376 56.3164C126.773 56.5 127.109 56.7526 127.374 57.0794C127.635 57.4037 127.84 57.7826 127.976 58.2161C128.109 58.6523 128.177 59.1211 128.177 59.6276ZM127.12 59.6156C127.12 59.2536 127.075 58.9085 126.989 58.5791C126.902 58.2536 126.769 57.9645 126.596 57.7211C126.419 57.4828 126.198 57.2888 125.932 57.1416C125.669 56.9971 125.353 56.9229 124.991 56.9229C124.663 56.9229 124.372 56.9906 124.111 57.1299C123.848 57.264 123.626 57.4515 123.447 57.6911C123.257 57.9372 123.114 58.225 123.015 58.5505C122.919 58.8773 122.87 59.2367 122.87 59.6273C122.87 59.988 122.915 60.3369 122.991 60.6664C123.072 60.9958 123.2 61.2888 123.377 61.5414C123.551 61.794 123.773 61.9971 124.036 62.1482C124.299 62.3018 124.622 62.3773 124.991 62.3773C125.346 62.3773 125.657 62.3084 125.923 62.1664C126.189 62.027 126.414 61.8304 126.596 61.5791C126.769 61.3343 126.902 61.0414 126.989 60.7067C127.075 60.3682 127.12 60.0049 127.12 59.6156Z" fill="white"/>
<path d="M133.807 58.2187C133.807 58.6315 133.73 58.9778 133.57 59.2487C133.411 59.5221 133.208 59.7395 132.961 59.901C132.713 60.069 132.44 60.1849 132.132 60.25C131.826 60.315 131.519 60.3476 131.221 60.3476H130.648V59.3958H131.21C131.393 59.3958 131.573 59.3775 131.751 59.345C131.932 59.3138 132.089 59.2551 132.232 59.1718C132.368 59.0806 132.481 58.9582 132.568 58.8072C132.656 58.6562 132.698 58.4595 132.698 58.2186C132.698 58.0025 132.651 57.8267 132.551 57.6848C132.458 57.5389 132.333 57.4244 132.181 57.3345C132.029 57.2421 131.855 57.1783 131.671 57.1379C131.481 57.1015 131.294 57.0794 131.104 57.0794H130.299V63.1393H129.249V56.1484H131.117C131.439 56.1484 131.761 56.1809 132.083 56.2448C132.403 56.3099 132.69 56.4193 132.943 56.5729C133.204 56.737 133.412 56.9505 133.57 57.2174C133.73 57.4831 133.807 57.8164 133.807 58.2187Z" fill="white"/>
<path d="M140.622 59.6276C140.622 60.1133 140.559 60.5729 140.438 61.0104C140.314 61.4492 140.127 61.8307 139.872 62.1641C139.616 62.4948 139.285 62.7552 138.882 62.9505C138.48 63.1458 137.999 63.2422 137.436 63.2422C136.909 63.2422 136.448 63.1498 136.049 62.9661C135.648 62.7799 135.317 62.5273 135.053 62.2018C134.786 61.8789 134.586 61.4961 134.451 61.0547C134.313 60.6133 134.244 60.138 134.244 59.6276C134.244 59.1524 134.313 58.7005 134.451 58.2656C134.586 57.8307 134.786 57.4492 135.053 57.1185C135.317 56.7865 135.648 56.526 136.049 56.3307C136.448 56.1354 136.909 56.0391 137.436 56.0391C137.96 56.0391 138.422 56.1315 138.819 56.3164C139.217 56.5 139.553 56.7526 139.814 57.0794C140.081 57.4037 140.282 57.7826 140.419 58.2161C140.555 58.6523 140.622 59.1211 140.622 59.6276ZM139.564 59.6156C139.564 59.2536 139.519 58.9085 139.431 58.5791C139.346 58.2536 139.214 57.9645 139.038 57.7211C138.861 57.4828 138.644 57.2888 138.375 57.1416C138.113 56.9971 137.798 56.9229 137.436 56.9229C137.108 56.9229 136.818 56.9906 136.555 57.1299C136.294 57.264 136.069 57.4515 135.891 57.6911C135.701 57.9372 135.557 58.225 135.461 58.5505C135.362 58.8773 135.317 59.2367 135.317 59.6273C135.317 59.988 135.355 60.3369 135.436 60.6664C135.518 60.9958 135.646 61.2888 135.821 61.5414C135.996 61.794 136.214 61.9971 136.481 62.1482C136.746 62.3018 137.064 62.3773 137.436 62.3773C137.789 62.3773 138.105 62.3084 138.366 62.1664C138.632 62.027 138.857 61.8304 139.038 61.5791C139.214 61.3343 139.346 61.0414 139.431 60.7067C139.519 60.3682 139.564 60.0049 139.564 59.6156Z" fill="white"/>
<path d="M145.912 63.1185H141.692V56.1484H142.769V62.1849H145.912V63.1185Z" fill="white"/>
<path d="M147.681 63.1393H146.587V56.1484H147.681V63.1393Z" fill="white"/>
<path d="M153.469 57.0937H151.517V63.1588H150.446V57.0937H148.51V56.1692H153.469V57.0937Z" fill="white"/>
<path d="M159.527 63.1276H158.349L157.637 61.0742H155.208L154.451 63.1276H153.369L155.87 56.1354H157.009L159.527 63.1276ZM157.318 60.1432L156.473 57.3893H156.432L155.508 60.1432H157.318Z" fill="white"/>
<path d="M165.216 63.1393H163.96L161.269 57.7395H161.231V63.1393H160.2V56.1484H161.482L164.157 61.5729H164.186V56.1484H165.216L165.216 63.1393Z" fill="white"/>
<path d="M175.056 58.2812H173.959C173.959 58.0208 173.924 57.8047 173.852 57.6289C173.781 57.4544 173.685 57.3164 173.559 57.2135C173.429 57.108 173.286 57.0325 173.126 56.9895C172.968 56.9439 172.804 56.9179 172.636 56.9101C172.339 56.9101 172.059 56.9699 171.798 57.0898C171.542 57.2108 171.318 57.3814 171.13 57.6093C170.936 57.8385 170.785 58.1132 170.678 58.4361C170.57 58.759 170.518 59.1314 170.518 59.5429C170.518 59.7708 170.544 60.0442 170.604 60.3619C170.662 60.6796 170.776 60.9817 170.946 61.276C171.112 61.5663 171.352 61.8176 171.658 62.0273C171.964 62.2382 172.37 62.3476 172.88 62.3554C173.081 62.3554 173.273 62.3398 173.451 62.3111C173.636 62.2811 173.807 62.2382 173.966 62.1796V60.3138H172.294V59.358H175.036V62.763L174.803 62.8007C174.712 62.8398 174.607 62.8866 174.486 62.9374C174.368 62.9869 174.223 63.0377 174.054 63.0819C173.887 63.1289 173.691 63.1666 173.468 63.1939C173.243 63.2251 172.985 63.2396 172.696 63.2396C172.123 63.2396 171.632 63.1302 171.227 62.914C170.818 62.6966 170.479 62.4114 170.213 62.0625C169.951 61.7083 169.754 61.3047 169.628 60.8607C169.501 60.4179 169.439 59.9635 169.439 59.5065C169.439 59.0533 169.505 58.6172 169.634 58.1979C169.764 57.7799 169.964 57.4101 170.234 57.0833C170.501 56.7669 170.836 56.513 171.238 56.3177C171.637 56.1237 172.107 56.026 172.647 56.026C172.969 56.026 173.278 56.073 173.568 56.1666C173.861 56.2604 174.119 56.4023 174.339 56.5885C174.558 56.7786 174.734 57.0117 174.863 57.2942C174.993 57.5768 175.056 57.9049 175.056 58.2812Z" fill="white"/>
<path d="M182.328 59.6224C182.328 60.1119 182.268 60.5716 182.145 61.0091C182.021 61.4453 181.831 61.8294 181.576 62.1588C181.321 62.4935 180.99 62.7539 180.588 62.9479C180.186 63.1432 179.703 63.2408 179.14 63.2408C178.613 63.2408 178.154 63.1458 177.755 62.9635C177.356 62.7786 177.023 62.5234 176.758 62.1979C176.491 61.8763 176.29 61.4948 176.155 61.052C176.018 60.6119 175.951 60.1367 175.951 59.6224C175.951 59.1497 176.018 58.6992 176.155 58.2643C176.29 57.8294 176.491 57.4466 176.758 57.1171C177.023 56.7851 177.356 56.5247 177.755 56.3255C178.154 56.1354 178.613 56.0364 179.14 56.0364C179.663 56.0364 180.123 56.1276 180.525 56.3125C180.923 56.5 181.256 56.7513 181.52 57.0768C181.788 57.4023 181.991 57.7773 182.124 58.2148C182.262 58.6497 182.328 59.1184 182.328 59.6224ZM181.27 59.613C181.27 59.2497 181.222 58.906 181.135 58.5779C181.048 58.2511 180.918 57.9646 180.745 57.7185C180.569 57.4789 180.348 57.2849 180.083 57.1378C179.818 56.9919 179.502 56.9203 179.14 56.9203C178.814 56.9203 178.52 56.9894 178.26 57.1273C177.995 57.2628 177.779 57.449 177.595 57.6912C177.406 57.9359 177.264 58.2211 177.166 58.5479C177.066 58.876 177.02 59.2341 177.02 59.6222C177.02 59.9854 177.061 60.3344 177.144 60.6651C177.223 60.9945 177.35 61.2862 177.525 61.5375C177.699 61.7914 177.921 61.9946 178.188 62.1443C178.452 62.2979 178.774 62.3722 179.14 62.3722C179.496 62.3722 179.809 62.3071 180.076 62.1664C180.338 62.0271 180.562 61.8292 180.745 61.5779C180.918 61.3331 181.048 61.0414 181.135 60.7029C181.222 60.3656 181.27 60.0023 181.27 59.613Z" fill="white"/>
<path d="M188.572 56.1445L186.131 63.1367H184.963L182.513 56.1445H183.663L185.517 61.8021L185.596 61.7941L187.452 56.1443L188.572 56.1445Z" fill="white"/>
<path d="M193.313 63.1367H189.219V56.1445H193.217V57.0794H190.288V59.0143H193.098V59.9453H190.288V62.2018H193.313V63.1367Z" fill="white"/>
<path d="M199.109 63.1432H198.007L197.726 61.8021C197.635 61.3919 197.505 61.0534 197.335 60.7838C197.163 60.5104 196.949 60.3242 196.697 60.2278C196.637 60.2345 196.581 60.2372 196.521 60.2372C196.463 60.2372 196.408 60.2372 196.345 60.2372H195.784V59.3049H196.339C196.525 59.3049 196.709 59.2879 196.885 59.2619C197.064 59.2333 197.222 59.1747 197.359 59.0901C197.503 59.0106 197.618 58.8987 197.699 58.7502C197.782 58.6018 197.822 58.4065 197.822 58.1669C197.822 57.9521 197.779 57.7737 197.684 57.6305C197.589 57.4898 197.466 57.3765 197.308 57.2997C197.161 57.2177 196.991 57.1578 196.808 57.1239C196.615 57.0875 196.426 57.0679 196.24 57.0679H195.432V63.1356H194.383V56.1356H196.251C196.572 56.1356 196.895 56.1643 197.217 56.2268C197.538 56.288 197.822 56.3935 198.078 56.5406C198.337 56.6904 198.544 56.8987 198.703 57.1604C198.864 57.4234 198.941 57.7581 198.941 58.1669C198.941 58.6253 198.844 58.9964 198.649 59.2737C198.456 59.5523 198.21 59.7659 197.913 59.9169C198.092 60.0797 198.268 60.2893 198.436 60.5419C198.604 60.8011 198.723 61.1005 198.786 61.443L199.109 63.1432Z" fill="white"/>
<path d="M205.22 63.1367H203.968L201.275 57.7396H201.237V63.1367H200.206V56.1445H201.49L204.163 61.569H204.191V56.1445H205.22L205.22 63.1367Z" fill="white"/>
<path d="M213.368 63.125H212.374V57.6914H212.353L210.53 63.125H209.546L207.727 57.6914H207.698V63.125H206.708V56.1445H208.176L210.03 61.7734H210.071L211.908 56.1445H213.368L213.368 63.125Z" fill="white"/>
<path d="M218.977 63.1367H214.885V56.1445H218.881V57.0794H215.951V59.0143H218.761V59.9453H215.951V62.2018H218.977V63.1367Z" fill="white"/>
<path d="M225.053 63.1367H223.8L221.105 57.7396H221.067V63.1367H220.036V56.1445H221.32L223.992 61.569H224.023V56.1445H225.053L225.053 63.1367Z" fill="white"/>
<path d="M230.755 57.0898H228.802V63.1549H227.732V57.0898H225.798V56.1666H230.755V57.0898Z" fill="white"/>
</svg>
